<svg width="20" height="20" viewBox="0 0 20 20" fill="none" xmlns="http://www.w3.org/2000/svg">
<path d="M10 2C5.5888 2 2 5.5888 2 10C2 14.4112 5.5888 18 10 18C14.4112 18 18 14.4112 18 10C18 5.5888 14.4112 2 10 2ZM14.7562 9.36256L12.5849 10.9401C12.4099 11.0676 12.3361 11.2926 12.4036 11.4988L13.2324 14.0513C13.3811 14.5113 12.8549 14.8951 12.4636 14.6101L10.2924 13.0326C10.1174 12.9051 9.87987 12.9051 9.70489 13.0326L7.53363 14.6101C7.14237 14.8951 6.61612 14.5126 6.76489 14.0513L7.59363 11.4988C7.65988 11.2926 7.58738 11.0676 7.41238 10.9401L5.24111 9.36256C4.84985 9.07756 5.05111 8.45882 5.53486 8.45882H8.21861C8.43486 8.45882 8.6261 8.32007 8.69362 8.11382L9.52235 5.56131C9.6711 5.10131 10.3236 5.10131 10.4724 5.56131L11.3011 8.11382C11.3674 8.32007 11.5599 8.45882 11.7761 8.45882H14.4599C14.9436 8.45882 15.1448 9.07757 14.7536 9.36256H14.7562Z" fill="#26537C"/>
</svg>
