<svg width="20" height="20" viewBox="0 0 20 20" fill="none" xmlns="http://www.w3.org/2000/svg">
<path d="M18.1612 8.11181L17.0576 7.92821C16.955 7.91201 16.8722 7.84181 16.8398 7.74641C16.7318 7.41341 16.5932 7.08042 16.4294 6.7564C16.3826 6.6646 16.3916 6.5548 16.4528 6.4702L17.1045 5.5612C17.3889 5.1598 17.3439 4.61619 16.9964 4.2688L15.7291 3.0016C15.3835 2.65599 14.8398 2.6092 14.4348 2.89539L13.5275 3.54519C13.4411 3.60639 13.3313 3.61539 13.2413 3.57039C12.9262 3.41019 12.5932 3.27159 12.2511 3.16C12.1539 3.12761 12.0819 3.0448 12.0639 2.9422L11.8821 1.8388C11.8011 1.35279 11.3834 1 10.892 1H9.10262C8.60938 1 8.19353 1.35279 8.11252 1.8388L7.9289 2.9422C7.9127 3.0448 7.84249 3.12761 7.74708 3.16C7.41585 3.268 7.08281 3.4066 6.75697 3.57039C6.66516 3.61719 6.55535 3.60819 6.47074 3.54699L5.56165 2.8954C5.16021 2.61099 4.61654 2.65599 4.26911 3.0034L3.00178 4.2706C2.65615 4.6162 2.60935 5.15981 2.89557 5.5648L3.54543 6.47201C3.60664 6.55661 3.61564 6.6682 3.56884 6.76001C3.40502 7.08581 3.2682 7.41881 3.1602 7.75001C3.1278 7.84721 3.04499 7.91741 2.94058 7.93361L1.83888 8.11721C1.35282 8.19821 1 8.61582 1 9.10722V10.8964C1 11.3896 1.35282 11.8054 1.84068 11.8864L2.94058 12.0682C3.04499 12.0862 3.1296 12.1582 3.1602 12.2554C3.27182 12.5974 3.41042 12.9304 3.56884 13.2418C3.61564 13.3336 3.60664 13.4452 3.54543 13.5298L2.89377 14.4388C2.60934 14.842 2.65434 15.3838 3.00178 15.7312L4.26911 16.9984C4.61475 17.3458 5.15841 17.3908 5.56345 17.1046L5.88929 16.8706L6.47074 16.4548C6.55535 16.3936 6.66516 16.3846 6.75877 16.4314C7.08461 16.5952 7.41764 16.732 7.74888 16.84C7.84609 16.8724 7.91629 16.9552 7.9325 17.0596L8.11612 18.1612C8.19713 18.6472 8.61478 19 9.10623 19H10.8956C11.3888 19 11.8047 18.6472 11.8857 18.1594L12.0675 17.0596C12.0855 16.9552 12.1575 16.8706 12.2547 16.84C12.5968 16.7284 12.928 16.5898 13.2412 16.4314C13.3348 16.3846 13.4447 16.3936 13.5293 16.4548L14.1107 16.8706L14.4384 17.1064C14.6148 17.2306 14.8182 17.2918 15.0216 17.2918C15.2808 17.2918 15.5365 17.1928 15.7309 16.9984L16.9982 15.7312C17.3438 15.3856 17.3906 14.842 17.1044 14.437L16.4546 13.5298C16.3933 13.4434 16.3843 13.3336 16.4293 13.2436C16.5896 12.9286 16.7282 12.5974 16.8398 12.2536C16.8722 12.1564 16.955 12.0844 17.0576 12.0664L18.1611 11.8846C18.6472 11.8036 19 11.386 19 10.8946V9.10541C19 8.60862 18.6472 8.19282 18.1612 8.11181ZM18.28 10.8909C18.28 11.0295 18.1792 11.1483 18.0424 11.1717L16.9388 11.3535C16.5698 11.4165 16.2692 11.6739 16.154 12.0267C16.0532 12.3345 15.929 12.6315 15.7849 12.9159C15.6193 13.2471 15.6499 13.6413 15.8659 13.9455L16.514 14.8509C16.595 14.9661 16.5824 15.1209 16.4852 15.2181L15.2179 16.4854C15.1207 16.5826 14.9658 16.5952 14.8524 16.516L14.6796 16.3881V15.229C14.6796 13.4362 13.2197 11.9764 11.4267 11.9764H8.57155C6.77858 11.9764 5.31866 13.4362 5.31866 15.229V16.3881L5.14585 16.5123C5.03063 16.5933 4.87581 16.5808 4.7786 16.4835L3.50947 15.2163C3.41226 15.1191 3.39966 14.9643 3.47887 14.851L4.12873 13.9438C4.34475 13.6414 4.37535 13.2472 4.20794 12.9123C4.06392 12.6315 3.94152 12.3328 3.84069 12.0267C3.72548 11.6739 3.42484 11.4147 3.054 11.3517L1.9541 11.1699C1.81908 11.1483 1.71828 11.0295 1.71828 10.8909V9.10174C1.71828 8.96314 1.81909 8.84434 1.95589 8.82093L3.0558 8.63733C3.42484 8.57793 3.72728 8.32053 3.84249 7.96592C3.9397 7.66891 4.06391 7.37013 4.20974 7.07671C4.37715 6.74551 4.34655 6.35132 4.12873 6.0471L3.48066 5.1417C3.39965 5.0265 3.41225 4.87169 3.50946 4.77449L4.77859 3.50728C4.8758 3.41008 5.03063 3.39748 5.14402 3.47668L6.05131 4.12648C6.35554 4.34428 6.74977 4.37488 7.08103 4.20748C7.37445 4.05988 7.67329 3.93568 7.97212 3.83847C8.32495 3.72327 8.58238 3.42087 8.64178 3.05368L8.8254 1.95209C8.847 1.81709 8.96582 1.7163 9.10442 1.7163H10.8938C11.0324 1.7163 11.1512 1.8171 11.1746 1.95389L11.3565 3.0573C11.4195 3.42631 11.6769 3.72689 12.0297 3.84209C12.3358 3.94289 12.6346 4.06529 12.919 4.2111C13.2503 4.3767 13.6445 4.3461 13.9487 4.1301L14.8542 3.4821C14.9695 3.4011 15.1243 3.4137 15.2215 3.5109L16.4888 4.7781C16.586 4.8753 16.5986 5.03011 16.5194 5.14349L15.8696 6.05069C15.6517 6.35489 15.6211 6.74908 15.7886 7.08031C15.9362 7.3737 16.0604 7.6725 16.1576 7.97131C16.2728 8.3241 16.5752 8.5815 16.9425 8.6409L18.0442 8.8245C18.1828 8.8479 18.2818 8.9649 18.2818 9.10531V10.8909L18.28 10.8909ZM12.8793 7.83625C12.8793 9.42385 11.5868 10.7163 9.99901 10.7163C8.41126 10.7163 7.11872 9.42385 7.11872 7.83625C7.11872 6.24866 8.41126 4.95625 9.99901 4.95625C11.5868 4.95625 12.8793 6.24866 12.8793 7.83625Z" fill="#26537C"/>
</svg>
