<svg width="20" height="20" viewBox="0 0 20 20" fill="none" xmlns="http://www.w3.org/2000/svg">
<path fill-rule="evenodd" clip-rule="evenodd" d="M4.09039 7.06641C3.40784 7.06641 2.84572 7.62824 2.8457 8.31078V15.9108C2.84568 17.0597 3.78552 17.9995 4.93445 17.9995H15.0679C16.2168 17.9995 17.1566 17.0597 17.1566 15.9108V8.31078C17.1566 7.62824 16.5948 7.06641 15.9123 7.06641H4.09039ZM7.46789 8.75547H12.5348C13.2173 8.75547 13.7791 9.31737 13.7791 9.99984C13.7791 10.6823 13.2173 11.2442 12.5348 11.2442H7.46789C6.78539 11.2442 6.22351 10.6823 6.22351 9.99984C6.22351 9.31737 6.78539 8.75547 7.46789 8.75547Z" fill="#26537C"/>
<path fill-rule="evenodd" clip-rule="evenodd" d="M3.24468 2C2.56218 2 2 2.56187 2 3.24437V4.93342C2 5.61591 2.56218 6.17778 3.24468 6.17778H16.7555C17.438 6.17778 17.9999 5.61591 17.9999 4.93342V3.24437C17.9999 2.56187 17.438 2 16.7555 2H3.24468Z" fill="#26537C"/>
</svg>
