<svg width="20" height="20" viewBox="0 0 20 20" fill="none" xmlns="http://www.w3.org/2000/svg">
<path d="M3.42869 4C2.64623 4 2 4.61368 2 5.35674V7.37581C2 7.91114 2.33499 8.37943 2.8156 8.59902V15.4373C2.8156 16.2967 3.5612 17 4.46608 17H15.535C16.44 17 17.1844 16.2967 17.1844 15.4373V8.59902C17.665 8.37943 18 7.91116 18 7.37581V5.35674C18 4.61368 17.355 4 16.5726 4H3.42869ZM3.42869 4.9496H16.5718C16.8174 4.9496 16.9993 5.12349 16.9993 5.35674V7.37581C16.9993 7.60907 16.8174 7.78177 16.5718 7.78177H3.42869C3.18307 7.78177 2.99996 7.60907 2.99996 7.37581V5.35674C2.99996 5.12349 3.18307 4.9496 3.42869 4.9496ZM3.81618 8.73143H16.1838V15.4368C16.1838 15.7828 15.8988 16.0499 15.5344 16.0499H4.46549C4.10114 16.0499 3.81614 15.7828 3.81614 15.4368L3.81618 8.73143ZM7.94591 10.2733V10.2739C7.8128 10.2733 7.68468 10.3231 7.5903 10.4127C7.49593 10.5024 7.44343 10.624 7.44405 10.7505C7.44405 10.8763 7.49718 10.9973 7.59155 11.0864C7.68592 11.1748 7.81341 11.2247 7.9459 11.2241H12.0545C12.187 11.2247 12.3145 11.1748 12.4089 11.0864C12.5026 10.9973 12.5557 10.8763 12.5564 10.7505C12.5564 10.624 12.5039 10.5024 12.4095 10.4127C12.3158 10.3231 12.1876 10.2733 12.0545 10.2739L7.94591 10.2733Z" fill="#26537C"/>
</svg>
