<svg width="20" height="20" viewBox="0 0 20 20" fill="none" xmlns="http://www.w3.org/2000/svg">
<path d="M17.1941 12.3226L16.9751 11.9857C16.4192 11.1265 15.4589 10.5874 14.4481 10.5537L12.7802 10.4863C12.7297 10.301 12.6791 10.0988 12.6118 9.91349L12.5107 9.61024C12.4601 9.44177 12.3591 9.29015 12.258 9.15537L12.5612 9.13853C13.4373 9.07114 14.2628 8.64997 14.8187 7.95924C15.3746 7.26852 15.6274 6.39248 15.5094 5.51644C15.4589 5.1795 15.1556 4.9268 14.8187 4.97734C14.4818 5.02788 14.2459 5.33113 14.2796 5.66806C14.347 6.20717 14.1954 6.74627 13.8584 7.16744C13.5215 7.58861 13.0161 7.84132 12.477 7.89186L11.8199 7.9424L11.9547 6.89789C12.039 6.22401 11.8199 5.58383 11.4156 5.11212L12.1569 2.80409C12.258 2.484 12.0895 2.13021 11.7526 2.02913C11.4325 1.92805 11.0787 2.09652 10.9776 2.43346L10.3374 4.40455C10.1184 4.33716 9.88256 4.30347 9.6467 4.30347C9.41084 4.30347 9.17499 4.33716 8.95598 4.40455L8.31579 2.43346C8.21471 2.11337 7.86093 1.92805 7.54084 2.02913C7.22074 2.13021 7.03543 2.484 7.13651 2.80409L7.87777 5.11212C7.47345 5.58383 7.25444 6.22401 7.33867 6.89789L7.47345 7.9424L6.81642 7.89186C6.27732 7.85816 5.78876 7.60546 5.43497 7.16744C5.09803 6.74627 4.94641 6.20717 5.0138 5.66806C5.06434 5.33113 4.82848 5.01104 4.4747 4.97734C4.13776 4.9268 3.81767 5.16266 3.78398 5.51644C3.66605 6.39248 3.91875 7.28537 4.4747 7.95924C5.03065 8.63312 5.85614 9.07114 6.73218 9.13853L7.03543 9.15537C6.93435 9.29015 6.85011 9.44177 6.78272 9.61024L6.68164 9.89664C6.61426 10.082 6.56371 10.2673 6.51317 10.4694L4.84533 10.5368C3.81767 10.5874 2.87424 11.1265 2.31829 11.9688L2.09928 12.3057C1.91397 12.5921 1.9982 12.9796 2.26775 13.1649C2.36884 13.2323 2.48676 13.266 2.60469 13.266C2.80685 13.266 3.00902 13.1649 3.12695 12.9796L3.34596 12.6427C3.68289 12.1204 4.27254 11.7835 4.89587 11.7666L6.32786 11.6993C6.29416 12.2721 6.34471 12.828 6.44579 13.4008C5.87299 13.6198 5.36758 13.9904 4.99695 14.4958C4.441 15.2371 4.25569 16.1805 4.441 17.0903L4.52524 17.4946C4.59263 17.781 4.84533 17.9832 5.13173 17.9832C5.18227 17.9832 5.21596 17.9832 5.2665 17.9663C5.60344 17.8989 5.8056 17.562 5.73822 17.225L5.65398 16.8207C5.53605 16.2648 5.65398 15.692 5.99092 15.2371C6.19308 14.9507 6.47948 14.7485 6.79957 14.6138C6.79957 14.6138 6.79957 14.6138 6.79957 14.6306L6.96804 15.0349C7.28813 15.8436 8.23156 16.3827 9.27607 16.3827H9.96679C11.0113 16.3827 11.9547 15.8436 12.2748 15.0349L12.4433 14.6306C12.4433 14.6306 12.4433 14.6306 12.4433 14.6138C12.7634 14.7485 13.0498 14.9507 13.2519 15.2371C13.5889 15.692 13.7068 16.2648 13.5889 16.8207L13.5383 17.2419C13.4709 17.5788 13.6731 17.9158 14.01 17.9832C14.0606 18 14.0943 18 14.1448 18C14.4312 18 14.6839 17.7978 14.7513 17.5114L14.8355 17.1071C15.0377 16.2142 14.8355 15.2708 14.2796 14.5127C13.909 14.0073 13.4036 13.6367 12.8308 13.4176C12.9487 12.8617 12.9824 12.2889 12.9487 11.7161L14.3807 11.7835C15.004 11.8172 15.5937 12.1373 15.9306 12.6595L16.1496 12.9965C16.2675 13.1818 16.4697 13.2829 16.6719 13.2829C16.7898 13.2829 16.9077 13.2492 17.0088 13.1818C17.312 12.9965 17.3963 12.609 17.1941 12.3226Z" fill="#26537C"/>
</svg>
