<svg width="20" height="20" viewBox="0 0 20 20" fill="none" xmlns="http://www.w3.org/2000/svg">
<path fill-rule="evenodd" clip-rule="evenodd" d="M18.9323 13.296L18.2396 10.2382C18.4699 9.74249 18.5868 9.20192 18.5816 8.65528C18.5825 7.42128 17.9796 6.26245 16.9649 5.54486V5.20723C16.9658 4.54575 16.4284 4.0069 15.7609 4H14.0745C13.8302 4.00777 13.5929 4.08463 13.3913 4.22107V4.82469L9.08491 4.81625H6.96308C6.79819 4.32574 6.33404 3.99675 5.81319 4.0002H4.14242C3.4715 4.00711 2.92882 4.54336 2.92009 5.20743V5.35077C1.73703 6.03903 1.01288 7.29721 1.01726 8.65551C1.02249 9.35066 1.21443 10.0329 1.57389 10.6296L1.06438 12.8342C0.755536 14.1986 1.58611 15.5622 2.94977 15.9292C3.15567 15.9775 3.36681 16.0008 3.57969 16C4.79502 15.9991 5.84714 15.1641 6.11247 13.9905L6.5234 12.1425C7.10795 11.867 7.61484 11.4508 7.99699 10.9327H11.5949C12.0399 11.5458 12.6637 12.0087 13.3817 12.2591L13.7595 13.981C14.0274 15.158 15.0822 15.9948 16.301 15.9974C16.4764 15.9974 16.6509 15.9793 16.8219 15.9447C17.4823 15.9603 18.1131 15.671 18.5284 15.1615C18.9507 14.6364 19.1007 13.9462 18.9323 13.296ZM3.09459 9.34954C2.78923 9.35041 2.51352 9.16906 2.39575 8.89014C2.27797 8.61036 2.34166 8.28911 2.55803 8.07496C2.77353 7.8608 3.09809 7.79604 3.38076 7.91175C3.66343 8.02746 3.84752 8.30034 3.84752 8.60258C3.84228 9.01191 3.50902 9.34351 3.09459 9.34954ZM4.6406 10.897C4.33088 10.8987 4.05169 10.7157 3.93128 10.4341C3.81176 10.1518 3.87545 9.82621 4.09356 9.60859C4.3108 9.39184 4.63972 9.32536 4.9259 9.44106C5.21118 9.55764 5.39877 9.8331 5.39964 10.1388C5.40052 10.3391 5.32025 10.5317 5.17717 10.6733C5.03409 10.815 4.8404 10.8953 4.63798 10.8953L4.6406 10.897ZM4.6406 7.80207C4.33436 7.80294 4.05866 7.62159 3.94089 7.34267C3.82398 7.06289 3.88767 6.74163 4.10316 6.52749C4.31954 6.31333 4.6441 6.24856 4.92677 6.36428C5.20857 6.47999 5.39265 6.75287 5.39265 7.05511C5.39004 7.46703 5.05414 7.79949 4.63798 7.80208L4.6406 7.80207ZM6.20405 9.34954C5.89869 9.34954 5.62298 9.16734 5.50608 8.88842C5.38917 8.6095 5.45373 8.28738 5.6701 8.0741C5.8856 7.85994 6.21016 7.79604 6.49284 7.91175C6.77464 8.02746 6.95872 8.30034 6.95872 8.60258C6.95611 9.01536 6.61847 9.34869 6.20143 9.34955L6.20405 9.34954Z" fill="#26537C"/>
<path d="M2.39625 8.88922C2.51402 9.16814 2.78972 9.34948 3.09509 9.34862C3.50951 9.34258 3.84278 9.01099 3.84801 8.60166C3.84801 8.29942 3.66393 8.02654 3.38126 7.91082C3.09859 7.79511 2.77402 7.85987 2.55853 8.07403C2.34216 8.28818 2.27847 8.60944 2.39625 8.88922Z" fill="#26537C"/>
<path d="M3.93178 10.4332C4.05219 10.7147 4.33138 10.8978 4.6411 10.8961L4.63848 10.8943C4.8409 10.8943 5.03458 10.814 5.17766 10.6724C5.32075 10.5308 5.40101 10.3382 5.40014 10.1379C5.39927 9.83218 5.21168 9.55672 4.92639 9.44014C4.64022 9.32444 4.3113 9.39092 4.09406 9.60767C3.87594 9.82529 3.81225 10.1509 3.93178 10.4332Z" fill="#26537C"/>
<path d="M4.63969 7.80115C4.63999 7.80115 4.63939 7.80115 4.63969 7.80115C4.33438 7.8011 4.05886 7.61996 3.94138 7.34175C3.82447 7.06196 3.88816 6.74071 4.10366 6.52656C4.32003 6.3124 4.64459 6.24764 4.92726 6.36335C5.20907 6.47907 5.39315 6.75194 5.39315 7.05419C5.39053 7.466 5.05572 7.7984 4.63969 7.80115Z" fill="#26537C"/>
<path d="M6.20455 9.34862C6.20485 9.34862 6.20424 9.34862 6.20455 9.34862C5.89955 9.34825 5.62336 9.16613 5.50658 8.8875C5.38967 8.60857 5.45423 8.28646 5.6706 8.07317C5.8861 7.85901 6.21066 7.79511 6.49333 7.91082C6.77513 8.02654 6.95922 8.29942 6.95922 8.60166C6.95661 9.01388 6.62081 9.34686 6.20455 9.34862Z" fill="#26537C"/>
</svg>
