<svg width="20" height="20" viewBox="0 0 20 20" fill="none" xmlns="http://www.w3.org/2000/svg">
<path d="M17.147 16.4161L17.1037 16.4095C17.1085 16.1838 17.1111 15.9407 17.1111 15.6584C17.1111 8.93794 13.5556 6.76955 11.1852 5.88066H8.648C6.44444 6.76955 2.88889 8.4935 2.88889 15.6584C2.88889 15.9402 2.89182 16.1851 2.89875 16.4091L2.85302 16.4161C2.61059 16.4534 2.39013 16.578 2.23311 16.7664C2.0761 16.9549 1.99335 17.1942 2.00042 17.4394C2.00749 17.6846 2.1039 17.9187 2.27151 18.0978C2.43912 18.2769 2.66639 18.3886 2.91058 18.4119L4.86133 18.5168C6.15613 18.9456 7.97733 19.214 10 19.214C12.0227 19.214 13.8439 18.9456 15.1387 18.5168L17.0894 18.4119C17.3336 18.3886 17.5609 18.2769 17.7285 18.0978C17.8961 17.9187 17.9925 17.6846 17.9996 17.4394C18.0067 17.1942 17.9239 16.9549 17.7669 16.7664C17.6099 16.578 17.3894 16.4534 17.147 16.4161ZM9.67881 11.3341L10.8333 11.928C11.1376 12.0817 11.3844 12.3292 11.5374 12.6338C11.6903 12.9385 11.7413 13.2842 11.6827 13.6201C11.642 13.8957 11.5275 14.1551 11.3513 14.3709C11.1751 14.5867 10.9438 14.7507 10.6819 14.8457V15.1021C10.6819 15.2494 10.6233 15.3907 10.5192 15.4949C10.415 15.5991 10.2737 15.6576 10.1263 15.6576C9.97897 15.6576 9.83767 15.5991 9.73348 15.4949C9.6293 15.3907 9.57076 15.2494 9.57076 15.1021V14.8799C9.28867 14.8042 9.02728 14.6658 8.80605 14.4752C8.58482 14.2845 8.40944 14.0464 8.29298 13.7785C8.235 13.6435 8.23286 13.491 8.28701 13.3545C8.34116 13.2179 8.44721 13.1083 8.58194 13.0497C8.71668 12.9911 8.86914 12.9883 9.00596 13.0418C9.14279 13.0954 9.25284 13.2009 9.31204 13.3354C9.38105 13.4972 9.49975 13.6328 9.65097 13.7227C9.80218 13.8126 9.97808 13.8521 10.1532 13.8354L10.2075 13.8288C10.3042 13.8157 10.3937 13.7708 10.4622 13.7013C10.5306 13.6317 10.574 13.5414 10.5855 13.4445C10.6052 13.34 10.5904 13.232 10.5433 13.1366C10.4963 13.0413 10.4195 12.9638 10.3247 12.9158L9.17013 12.3219C8.86172 12.1642 8.61291 11.9106 8.46119 11.5992C8.30947 11.2878 8.26307 10.9356 8.32898 10.5955C8.38256 10.2839 8.53028 9.99612 8.75228 9.77093C8.97428 9.54573 9.2599 9.3939 9.57075 9.33586V9.10208C9.57075 8.95474 9.62928 8.81343 9.73347 8.70924C9.83766 8.60506 9.97896 8.54653 10.1263 8.54653C10.2736 8.54653 10.415 8.60506 10.5191 8.70924C10.6233 8.81343 10.6819 8.95474 10.6819 9.10208V9.45985C11.141 9.65159 11.5083 10.0133 11.707 10.4695C11.7655 10.6046 11.768 10.7574 11.714 10.8943C11.6599 11.0312 11.5537 11.1411 11.4187 11.1998C11.2837 11.2585 11.1309 11.2612 10.9939 11.2074C10.8569 11.1535 10.7469 11.0475 10.688 10.9126C10.6187 10.751 10.5 10.6155 10.3488 10.5256C10.1976 10.4358 10.0219 10.3962 9.8468 10.4126C9.74265 10.4198 9.64397 10.4619 9.56677 10.5322C9.48956 10.6025 9.43834 10.6967 9.42143 10.7998C9.39851 10.9048 9.4114 11.0144 9.45805 11.1113C9.50469 11.2081 9.58241 11.2865 9.67881 11.3341ZM8.3464 4.76478C8.18565 4.6074 6.44436 1.88069 7.73755 1.09701C8.12822 0.860253 8.78245 1.09105 9.33636 1.61981C9.46399 1.74351 9.63477 1.81267 9.81252 1.81263C9.99026 1.81259 10.161 1.74335 10.2886 1.61958C10.8425 1.09097 11.5025 0.850694 11.8872 1.097C13.1112 1.88068 11.439 4.6074 11.2783 4.76478L8.3464 4.76478Z" fill="#26537C"/>
</svg>
