<svg width="20" height="20" viewBox="0 0 20 20" fill="none" xmlns="http://www.w3.org/2000/svg">
<path d="M17.6444 17.2889H17.4667V8.4C17.4667 8.27556 17.3956 8.16889 17.2889 8.09778C17.1822 8.02667 17.0578 8.02667 16.9333 8.08L13.9467 9.59111L13.9644 8.4C13.9644 8.27556 13.9111 8.15111 13.8044 8.09778C13.6978 8.02667 13.5733 8.02667 13.4489 8.08L10.4089 9.60889L10.32 8.36444C10.3022 8.24 10.2489 8.13333 10.1422 8.08C10.0356 8.02667 9.91111 8.02667 9.80444 8.08L6.46222 9.84L6.16 2.33778C6.16 2.14222 6 2 5.80444 2H3.52889C3.33333 2 3.17333 2.14222 3.17333 2.33778L2.55111 17.2889H2.35556C2.16 17.2889 2 17.4489 2 17.6444C2 17.84 2.16 18 2.35556 18H2.88889H6.44444H6.46222H17.1111H17.6444C17.84 18 18 17.84 18 17.6444C18 17.4489 17.84 17.2889 17.6444 17.2889ZM3.26222 17.2889L3.88444 2.71111H5.46667L6.08889 17.2889H3.26222ZM6.78222 17.2889L6.49778 10.64L9.66222 8.96889L9.75111 10.2133C9.75111 10.3378 9.82222 10.4444 9.92889 10.4978C10.0356 10.5511 10.16 10.5511 10.2667 10.4978L13.2533 8.98667L13.2356 10.1778C13.2356 10.3022 13.2889 10.4267 13.3956 10.48C13.5022 10.5511 13.6267 10.5511 13.7511 10.4978L16.7556 8.98667V17.2889H6.78222Z" fill="#26537C"/>
<path d="M12.4887 12.4883H11.0665C10.8709 12.4883 10.7109 12.6483 10.7109 12.8438V14.2661C10.7109 14.4616 10.8709 14.6216 11.0665 14.6216H12.4887C12.6843 14.6216 12.8443 14.4616 12.8443 14.2661V12.8438C12.8443 12.6483 12.6843 12.4883 12.4887 12.4883ZM12.1332 13.9105H11.422V13.1994H12.1332V13.9105Z" fill="#26537C"/>
<path d="M9.46723 12.4883H8.04501C7.84945 12.4883 7.68945 12.6483 7.68945 12.8438V14.2661C7.68945 14.4616 7.84945 14.6216 8.04501 14.6216H9.46723C9.66279 14.6216 9.82279 14.4616 9.82279 14.2661V12.8438C9.82279 12.6483 9.66279 12.4883 9.46723 12.4883ZM9.11168 13.9105H8.40056V13.1994H9.11168V13.9105Z" fill="#26537C"/>
<path d="M15.5122 12.4883H14.0899C13.8944 12.4883 13.7344 12.6483 13.7344 12.8438V14.2661C13.7344 14.4616 13.8944 14.6216 14.0899 14.6216H15.5122C15.7077 14.6216 15.8677 14.4616 15.8677 14.2661V12.8438C15.8677 12.6483 15.7077 12.4883 15.5122 12.4883ZM15.1566 13.9105H14.4455V13.1994H15.1566V13.9105Z" fill="#26537C"/>
</svg>
