<svg width="20" height="20" viewBox="0 0 20 20" fill="none" xmlns="http://www.w3.org/2000/svg">
<path d="M11.5138 1C12.1745 1 12.6837 1.59499 12.592 2.26206L12.563 2.47825H14.7439C15.3085 2.47825 15.7786 2.9162 15.8294 3.48808L16.9957 16.7924C17.052 17.441 16.5501 18 15.9102 18H4.08963C3.43706 18 2.93062 17.4198 3.00778 16.7601L3.77471 10.1995L4.49626 3.46687C4.55707 2.9042 5.02356 2.47828 5.57903 2.47828H7.4614L7.43145 2.31105C7.30711 1.6292 7.82081 1.00001 8.50152 1.00001L11.5138 1ZM5.57901 3.21739C5.39386 3.21739 5.23867 3.35967 5.21778 3.54722L4.49714 10.2789L4.49623 10.2826L3.72931 16.8479C3.70299 17.0678 3.8718 17.2609 4.08963 17.2609H15.9102C16.1235 17.2609 16.2914 17.0743 16.2723 16.8581L15.1061 3.55376C15.0888 3.36343 14.9318 3.21745 14.7439 3.21745H12.4613L12.3397 4.10994C12.2644 4.65782 11.8042 5.06527 11.2606 5.06527H8.82282C8.29186 5.06527 7.83897 4.67539 7.74913 4.14322L7.59484 3.21745L5.57901 3.21739ZM7.81171 13.7989C7.98506 13.6973 8.20741 13.7592 8.30635 13.9366C8.40618 14.113 8.34538 14.3394 8.17112 14.4401L7.02029 15.1099C6.80881 15.2337 6.54107 15.1977 6.36772 15.0222L5.92118 14.5722C5.77868 14.429 5.77687 14.1953 5.91845 14.0502C6.05913 13.9052 6.28877 13.9033 6.43124 14.0474L6.77976 14.3985L7.81171 13.7989ZM13.9816 13.9347C14.1822 13.9347 14.3447 14.1001 14.3447 14.3043C14.3447 14.5085 14.1822 14.6739 13.9816 14.6739H10.3512C10.1507 14.6739 9.9882 14.5085 9.9882 14.3043C9.9882 14.1001 10.1507 13.9347 10.3512 13.9347H13.9816ZM8.17486 10.6577C8.34821 10.5561 8.57057 10.618 8.6695 10.7954C8.76934 10.9718 8.70853 11.1982 8.53427 11.2989L7.38344 11.9687C7.17197 12.0925 6.90423 12.0565 6.73088 11.881L6.28433 11.431C6.14184 11.2878 6.14003 11.0541 6.28161 10.909C6.42229 10.764 6.65192 10.7621 6.7944 10.9063L7.14291 11.2573L8.17486 10.6577ZM13.8002 10.7935C14.0008 10.7935 14.1632 10.9589 14.1632 11.1631C14.1632 11.3673 14.0008 11.5327 13.8002 11.5327H10.3512C10.1507 11.5327 9.9882 11.3673 9.9882 11.1631C9.9882 10.9589 10.1507 10.7935 10.3512 10.7935H13.8002ZM8.35632 7.51652C8.52968 7.41489 8.75203 7.47679 8.85097 7.65418C8.9508 7.83065 8.88999 8.057 8.71573 8.15771L7.5649 8.82754C7.35343 8.95135 7.08569 8.91531 6.91234 8.73977L6.46579 8.28984C6.3233 8.14663 6.32149 7.91287 6.46307 7.76783C6.60375 7.62278 6.83338 7.62093 6.97586 7.76506L7.32438 8.11615L8.35632 7.51652ZM13.6185 7.83712C13.8191 7.83712 13.9815 8.0025 13.9815 8.20669C13.9815 8.41087 13.8191 8.57625 13.6185 8.57625H10.3512C10.1507 8.57625 9.9882 8.41087 9.9882 8.20669C9.9882 8.0025 10.1507 7.83712 10.3512 7.83712H13.6185ZM8.50154 1.73935C8.27464 1.73935 8.10312 1.94908 8.14484 2.17637L8.28915 2.96539V2.96816L8.29006 2.97093L8.46523 4.01865C8.49518 4.19604 8.64584 4.32632 8.82283 4.32632H11.2606C11.4412 4.32632 11.5955 4.1905 11.62 4.00756L11.8732 2.15973C11.9032 1.93799 11.7344 1.73936 11.5138 1.73936L8.50154 1.73935Z" fill="#26537C"/>
</svg>
