<svg width="20" height="20" viewBox="0 0 20 20" fill="none" xmlns="http://www.w3.org/2000/svg">
<path fill-rule="evenodd" clip-rule="evenodd" d="M17.472 11.708L13.0744 16.106C10.5495 18.6313 6.41834 18.6313 3.89349 16.106C2.62992 14.8433 2 13.1795 2 11.5155C2 9.85145 2.62992 8.18706 3.89349 6.92494L8.29189 2.52694C8.39848 2.42036 8.57096 2.42036 8.67755 2.52694L10.6517 4.50245C10.7583 4.60903 10.7583 4.7815 10.6517 4.88808L6.25408 9.28608C5.02827 10.5118 5.02827 12.5197 6.25408 13.7455C7.48137 14.9712 9.48802 14.9712 10.7139 13.7455L15.1115 9.34747C15.2181 9.24089 15.3921 9.24089 15.4987 9.34747L17.4728 11.323C17.4743 11.3245 17.4765 11.3259 17.478 11.3282C17.4795 11.3296 17.4817 11.3319 17.4832 11.3333L17.4869 11.3385C17.4884 11.3407 17.4906 11.3422 17.4921 11.3437C17.4936 11.3452 17.4958 11.3474 17.4973 11.3489C17.4973 11.3511 17.4987 11.3526 17.501 11.3548C17.5024 11.3563 17.5024 11.3585 17.5047 11.36C17.5061 11.3615 17.5084 11.3637 17.5084 11.3652C17.5098 11.3674 17.5121 11.3689 17.5135 11.3711C17.5135 11.3726 17.515 11.3748 17.5172 11.377L17.5209 11.3829C17.5209 11.3852 17.5224 11.3866 17.5224 11.3889C17.5239 11.3911 17.5261 11.3926 17.5261 11.3948L17.5298 11.4007C17.5298 11.4029 17.5313 11.4044 17.5313 11.4066L17.535 11.4125C17.535 11.4148 17.5365 11.417 17.5365 11.4185C17.538 11.4207 17.538 11.4229 17.5402 11.4244L17.5417 11.4303C17.5417 11.4325 17.5432 11.4347 17.5432 11.437C17.5432 11.4392 17.5446 11.4414 17.5446 11.4436L17.5461 11.4495C17.5461 11.4518 17.5476 11.454 17.5476 11.4562L17.5491 11.4621V11.4688C17.5506 11.471 17.5506 11.4732 17.5506 11.4755V11.4814C17.552 11.4836 17.552 11.4858 17.552 11.488V11.5014C17.552 11.5036 17.5535 11.5058 17.5535 11.508V11.5213C17.5535 11.5236 17.552 11.5258 17.552 11.528V11.5413C17.552 11.5435 17.552 11.5458 17.5506 11.548V11.5546C17.5506 11.5569 17.5506 11.5591 17.5491 11.5606V11.5672C17.5476 11.5695 17.5476 11.5717 17.5476 11.5739C17.5476 11.5761 17.5461 11.5783 17.5461 11.5806L17.5446 11.5872L17.5432 11.5931C17.5432 11.5954 17.5417 11.5976 17.5417 11.5998L17.5402 11.6057L17.5365 11.6124C17.5365 11.6146 17.535 11.6168 17.535 11.6183C17.535 11.6205 17.5335 11.622 17.5335 11.6242H17.5321C17.5321 11.6264 17.5306 11.6287 17.5306 11.6301C17.5291 11.6324 17.5291 11.6346 17.5269 11.6361L17.5232 11.642C17.5232 11.6442 17.5217 11.6457 17.5217 11.6479L17.5143 11.6598L17.5091 11.6657C17.5091 11.6679 17.5076 11.6694 17.5054 11.6716C17.5039 11.6731 17.5039 11.6753 17.5017 11.6768C17.5002 11.679 17.498 11.6805 17.498 11.682C17.4965 11.6842 17.4943 11.6857 17.4928 11.6871C17.4913 11.6894 17.4891 11.6908 17.4876 11.6923L17.4839 11.6975L17.4788 11.7027C17.4773 11.7042 17.4751 11.7064 17.4736 11.7079L17.472 11.708ZM10.2926 0.896472C10.246 1.03932 10.0927 1.11778 9.94987 1.07115C9.807 1.02452 9.72779 0.871305 9.77443 0.728457L9.95209 0.188138C9.99872 0.045288 10.1519 -0.0331734 10.2948 0.0134612C10.4377 0.0600901 10.5169 0.213305 10.4702 0.356153L10.2926 0.896472ZM12.6509 3.61948L13.1912 3.44258C13.3341 3.39595 13.4118 3.242 13.3652 3.09915C13.3185 2.9563 13.1653 2.87784 13.0225 2.92447L12.4821 3.10137C12.3392 3.148 12.26 3.30121 12.3067 3.44406C12.3548 3.58691 12.508 3.66537 12.6509 3.61874L12.6509 3.61948ZM11.8818 1.8927C11.7752 1.99928 11.6027 1.99928 11.4961 1.8927C11.3895 1.78611 11.3895 1.61365 11.4961 1.50707L11.9106 1.09258C12.0158 0.986001 12.1897 0.986001 12.2963 1.09258C12.4014 1.19917 12.4014 1.37163 12.2963 1.47821L11.8818 1.89196V1.8927ZM16.9146 7.66442L17.09 7.1241C17.1367 6.98125 17.059 6.8273 16.9161 6.78141C16.7732 6.73478 16.6185 6.81324 16.5719 6.95609L16.3965 7.49641C16.3498 7.63926 16.4276 7.79321 16.5704 7.8391C16.7133 7.88573 16.868 7.80727 16.9146 7.66442ZM19.2708 10.3882C19.1279 10.4341 18.9747 10.3564 18.9281 10.2135C18.8815 10.0707 18.9592 9.91671 19.1035 9.87008L19.6439 9.69318C19.7868 9.64655 19.94 9.72501 19.9866 9.86786C20.0332 10.0107 19.954 10.1647 19.8112 10.2106L19.2708 10.3874V10.3882ZM18.5032 8.6614C18.3966 8.76799 18.2227 8.76799 18.1161 8.6614C18.0109 8.55482 18.0109 8.38236 18.1161 8.27578L18.5306 7.86129C18.6372 7.75471 18.8097 7.75471 18.9162 7.86129C19.0228 7.96787 19.0228 8.14034 18.9162 8.24692L18.5032 8.6614ZM7.03052 4.55804L8.61903 6.14789L10.0721 4.69496L8.48358 3.10512L7.03052 4.55804ZM8.23339 6.53355L6.64488 4.94371L4.27845 7.30993C3.12148 8.46679 2.54338 9.99068 2.54338 11.5147C2.54338 14.8084 5.18894 17.4537 8.48371 17.4537C10.0086 17.4537 11.532 16.8756 12.6888 15.7195L15.0553 13.3533L13.4645 11.7635L11.0981 14.1297C9.6591 15.5685 7.3059 15.5685 5.86705 14.1297C4.42821 12.6908 4.42806 10.3378 5.86705 8.89911L8.23348 6.53213L8.23339 6.53355ZM13.8516 11.3785L15.4401 12.9684L16.8931 11.5155L15.3024 9.92561L13.8516 11.3785Z" fill="#26537C"/>
</svg>
