<svg width="20" height="20" viewBox="0 0 20 20" fill="none" xmlns="http://www.w3.org/2000/svg">
<path fill-rule="evenodd" clip-rule="evenodd" d="M8.18667 3C7.18519 3 6.37333 3.79198 6.37333 4.76893V5.1756H3.28C2.57308 5.1756 2 5.73464 2 6.42425V9.0221C2.78001 9.88894 3.90914 10.3926 5.1031 10.3926H8.46793V9.61216C8.46793 9.32482 8.70669 9.09188 9.00126 9.09188H10.9988C11.2934 9.09188 11.5322 9.32482 11.5322 9.61216V10.3926H14.8968C16.0908 10.3926 17.22 9.8889 18 9.022V6.42425C18 5.73464 17.4269 5.1756 16.72 5.1756H13.6267V4.76893C13.6267 3.79198 12.8148 3 11.8133 3H8.18667ZM7.44 4.76893C7.44 4.36665 7.77429 4.04055 8.18667 4.04055H11.8133C12.2257 4.04055 12.56 4.36665 12.56 4.76893V5.08109H7.44V4.76893ZM5.1031 11.0169H8.46793V11.3243C8.46793 11.6117 8.70669 11.8446 9.00126 11.8446H10.9988C11.2934 11.8446 11.5322 11.6117 11.5322 11.3243V11.0169H14.8968C16.0467 11.0169 17.1446 10.6124 18 9.8975V15.7513C18 16.441 17.4269 17 16.72 17H3.28C2.57308 17 2 16.441 2 15.7513V9.89758C2.8554 10.6125 3.95322 11.0169 5.1031 11.0169ZM9.10793 9.71621V11.2203H10.8922V9.71621H9.10793Z" fill="#26537C"/>
</svg>
