<svg width="20" height="20" viewBox="0 0 20 20" fill="none" xmlns="http://www.w3.org/2000/svg">
<path d="M18 15.2246V3.69658C18 2.88725 17.3394 2.23594 16.5185 2.23594H15.037L13.8742 1.08953C13.8511 1.06671 13.8057 1.04477 13.7834 1.02194C13.7371 1 13.6917 1 13.6463 1H6.35279C6.30738 1 6.28423 1 6.23882 1.02282C6.19342 1.04564 6.17027 1.06759 6.14801 1.09041L4.963 2.25875H3.4815C2.66061 2.25875 2 2.91006 2 3.71939V15.2475C2 16.0568 2.66061 16.7081 3.4815 16.7081H7.35618L9.81798 18.9324C9.86249 18.9772 9.9542 19 10.0228 19C10.0904 19 10.159 18.9772 10.2275 18.9324L12.6893 16.7081H16.564C17.3617 16.6853 18 16.0331 18 15.2246ZM13.6462 1.69707L14.5348 2.5731L11.9136 6.37032L10.409 4.88685L13.6462 1.69707ZM11.2763 6.55045L10.9798 7.31412H9.04246L8.74597 6.55045L10.0227 5.29169L11.2763 6.55045ZM12.9394 1.58471L9.99966 4.48308L7.05992 1.58471H12.9394ZM6.3529 1.69707L9.58918 4.88779L8.06228 6.3932L5.46441 2.57305L6.3529 1.69707ZM7.19603 16.1008H3.45855C2.97955 16.1008 2.57002 15.719 2.57002 15.2248L2.56913 3.69671C2.56913 3.22445 2.95642 2.82069 3.45766 2.82069H4.91601L7.78829 6.9779C7.78829 6.9779 7.81144 6.9779 7.81144 7.00072C7.81144 7.00072 7.81144 7.02355 7.83458 7.02355C7.85773 7.04637 7.85773 7.04637 7.87999 7.04637C7.90314 7.04637 7.90314 7.06919 7.9254 7.06919C7.9708 7.09201 8.01621 7.09201 8.03936 7.09201C8.08476 7.09201 8.13017 7.06919 8.17647 7.04724H8.19962L8.22276 7.02442C8.22276 7.02442 8.24591 7.02442 8.24591 7.0016L8.26906 6.97878L8.52014 7.60816L7.19603 16.1008ZM9.99971 18.3032L7.76588 16.2808L9.08802 7.89869H10.9114L12.2335 16.2808L9.99971 18.3032ZM11.4581 7.62926L11.7091 6.99988L11.7323 7.0227C11.7323 7.0227 11.7554 7.0227 11.7554 7.04552C11.7554 7.04552 11.7554 7.06835 11.7786 7.06835H11.8017C11.8471 7.09117 11.8925 7.11311 11.9388 7.11311C11.9842 7.11311 12.0296 7.09029 12.0528 7.09029C12.0742 7.09029 12.0742 7.06747 12.0964 7.06747C12.1196 7.06747 12.1418 7.04465 12.1418 7.04465C12.1418 7.04465 12.1418 7.02182 12.165 7.02182C12.165 7.02182 12.1881 7.02182 12.1881 6.999L15.0604 2.84179H16.5187C16.9977 2.84179 17.4073 3.22362 17.4073 3.71781V15.2459C17.4073 15.7181 17.02 16.1219 16.5187 16.1219L12.8034 16.1237L11.4581 7.62926Z" fill="#26537C"/>
</svg>
