<svg width="20" height="20" viewBox="0 0 20 20" fill="none" xmlns="http://www.w3.org/2000/svg">
<path d="M4.28598 11.5718C5.54849 11.5718 6.57196 10.5484 6.57196 9.28591C6.57196 8.02343 5.54849 7 4.28598 7C3.02347 7 2 8.02343 2 9.28591C2 10.5484 3.02347 11.5718 4.28598 11.5718Z" fill="#26537C"/>
<path d="M10.0008 11.5718C11.2633 11.5718 12.2868 10.5484 12.2868 9.28591C12.2868 8.02343 11.2633 7 10.0008 7C8.73831 7 7.71484 8.02343 7.71484 9.28591C7.71484 10.5484 8.73831 11.5718 10.0008 11.5718Z" fill="#26537C"/>
<path d="M15.7137 11.5718C16.9762 11.5718 17.9997 10.5484 17.9997 9.28591C17.9997 8.02343 16.9762 7 15.7137 7C14.4512 7 13.4277 8.02343 13.4277 9.28591C13.4277 10.5484 14.4512 11.5718 15.7137 11.5718Z" fill="#26537C"/>
</svg>
