<svg width="20" height="20" viewBox="0 0 20 20" fill="none" xmlns="http://www.w3.org/2000/svg">
<path d="M5.81829 18.9277C5.96295 18.9277 6.1017 18.8702 6.20399 18.7679C6.30629 18.6656 6.36375 18.5269 6.36375 18.3822V13.9719C6.36388 13.8644 6.33223 13.7592 6.27278 13.6696C6.21333 13.58 6.12873 13.51 6.02961 13.4684C5.93049 13.4267 5.82127 13.4153 5.71567 13.4355C5.61007 13.4557 5.51281 13.5067 5.43609 13.5821L2.16328 16.7963C2.11141 16.847 2.07024 16.9076 2.04219 16.9745C2.01415 17.0414 1.9998 17.1133 2 17.1858V18.3822C2 18.5269 2.05747 18.6656 2.15977 18.7679C2.26206 18.8702 2.4008 18.9277 2.54547 18.9277H5.81829ZM2.72729 17.2618L5.63646 14.405V18.2004H2.72729V17.2618Z" fill="#26537C"/>
<path d="M11.8476 7.75579C11.7485 7.7139 11.6393 7.70236 11.5337 7.72262C11.4281 7.74288 11.3309 7.79404 11.2545 7.86961L7.98164 11.0839C7.92981 11.1345 7.88867 11.1951 7.86062 11.2619C7.83258 11.3287 7.81821 11.4005 7.81836 11.473V18.3823C7.81836 18.5269 7.87583 18.6657 7.97813 18.768C8.08042 18.8703 8.21916 18.9277 8.36383 18.9277H11.6366C11.7813 18.9277 11.9201 18.8703 12.0223 18.768C12.1246 18.6657 12.1821 18.5269 12.1821 18.3823V8.25907C12.1822 8.15155 12.1504 8.04641 12.0909 7.95686C12.0314 7.86732 11.9467 7.79736 11.8476 7.75579ZM11.4548 18.2004H8.54565V11.549L11.4548 8.69254V18.2004Z" fill="#26537C"/>
<path d="M17.455 18.9273C17.5997 18.9273 17.7384 18.8698 17.8407 18.7675C17.943 18.6652 18.0005 18.5265 18.0005 18.3818V2.54575C18.0005 2.43826 17.9688 2.33316 17.9093 2.24363C17.8499 2.1541 17.7653 2.08414 17.6662 2.04253C17.567 2.00092 17.4579 1.98952 17.3523 2.00976C17.2467 2.03 17.1495 2.08097 17.0728 2.15628L13.8 5.37128C13.7482 5.42184 13.7071 5.48226 13.6791 5.54896C13.6511 5.61566 13.6366 5.6873 13.6367 5.75965V18.3818C13.6367 18.5265 13.6942 18.6652 13.7965 18.7675C13.8988 18.8698 14.0375 18.9273 14.1822 18.9273H17.455ZM14.364 5.83602L17.2732 2.97921V18.2H14.364V5.83602Z" fill="#26537C"/>
</svg>
