<svg width="20" height="20" viewBox="0 0 20 20" fill="none" xmlns="http://www.w3.org/2000/svg">
<path d="M6.28603 12.1437H15.1438C15.2538 12.1434 15.3613 12.1115 15.4535 12.0517C15.5458 11.9919 15.6188 11.9068 15.6639 11.8065L17.9498 6.66327C17.9888 6.57633 18.0056 6.481 17.9984 6.38596C17.9912 6.29091 17.9604 6.19917 17.9087 6.11908C17.857 6.03899 17.7861 5.97311 17.7024 5.92742C17.6188 5.88173 17.525 5.8577 17.4297 5.8575H5.36025L4.85736 3.4516C4.82947 3.32163 4.75716 3.20545 4.65285 3.12305C4.54855 3.04065 4.41878 2.99718 4.28588 3.00014H2.57147C2.41991 3.00014 2.27455 3.06035 2.16738 3.16752C2.06021 3.27469 2 3.42005 2 3.57161C2 3.72318 2.06021 3.86853 2.16738 3.9757C2.27455 4.08288 2.41991 4.14308 2.57147 4.14308H3.82299L5.34311 11.2465C4.99522 11.4293 4.7095 11.7114 4.52225 12.057C4.33499 12.4025 4.25463 12.7959 4.29137 13.1872C4.32811 13.5785 4.48029 13.95 4.7286 14.2547C4.97691 14.5593 5.31014 14.7833 5.68599 14.8982C5.51921 15.1908 5.43064 15.5214 5.42883 15.8582C5.42883 16.3887 5.63956 16.8975 6.01466 17.2726C6.38976 17.6477 6.8985 17.8584 7.42898 17.8584C7.95945 17.8584 8.46819 17.6477 8.84329 17.2726C9.21839 16.8975 9.42912 16.3887 9.42912 15.8582C9.4279 15.5611 9.35953 15.268 9.22911 15.001H11.3436C11.2131 15.268 11.1448 15.5611 11.1435 15.8582C11.1435 16.3887 11.3543 16.8975 11.7294 17.2726C12.1045 17.6477 12.6132 17.8584 13.1437 17.8584C13.6742 17.8584 14.1829 17.6477 14.558 17.2726C14.9331 16.8975 15.1438 16.3887 15.1438 15.8582C15.1426 15.5611 15.0742 15.268 14.9438 15.001H15.7153C15.8669 15.001 16.0122 14.9408 16.1194 14.8337C16.2266 14.7265 16.2868 14.5811 16.2868 14.4296C16.2868 14.278 16.2266 14.1326 16.1194 14.0255C16.0122 13.9183 15.8669 13.8581 15.7153 13.8581H6.28603C6.05869 13.8581 5.84065 13.7678 5.6799 13.607C5.51914 13.4463 5.42883 13.2282 5.42883 13.0009C5.42883 12.7735 5.51914 12.5555 5.6799 12.3947C5.84065 12.234 6.05869 12.1437 6.28603 12.1437Z" fill="#26537C"/>
</svg>
