<svg width="20" height="20" viewBox="0 0 20 20" fill="none" xmlns="http://www.w3.org/2000/svg">
<path d="M15.657 4.343C14.1461 2.83206 12.1366 2 10 2C7.8634 2 5.854 2.83204 4.343 4.343C2.83206 5.85394 2 7.8634 2 10C2 12.1366 2.83204 14.146 4.343 15.657C5.85394 17.1679 7.8634 18 10 18C12.1366 18 14.146 17.168 15.657 15.657C17.1679 14.1461 18 12.1366 18 10C18 7.8634 17.168 5.854 15.657 4.343ZM10 2.63988C14.0586 2.63988 17.3602 5.94148 17.3602 10.0001C17.3602 11.7938 16.7149 13.4391 15.6454 14.7173C15.3915 13.5579 14.7844 12.5017 13.8961 11.6899C13.2258 11.0774 12.4305 10.6383 11.5735 10.3961C12.5118 9.85158 13.1446 8.83518 13.1446 7.67432C13.1446 5.94072 11.7337 4.52972 10 4.52972C8.26638 4.52972 6.85544 5.94066 6.85544 7.67432C6.85544 8.83526 7.48826 9.85172 8.42654 10.3961C7.5695 10.6383 6.7742 11.0774 6.10394 11.6899C5.21566 12.5016 4.60862 13.5578 4.35472 14.7173C3.2844 13.4392 2.63988 11.7939 2.63988 10.0001C2.63988 5.94148 5.9414 2.63988 10 2.63988ZM10 10.1789C8.61954 10.1789 7.496 9.05544 7.496 7.67488C7.496 6.29432 8.61944 5.17088 10 5.17088C11.3806 5.17088 12.504 6.29432 12.504 7.67488C12.504 9.05544 11.3806 10.1789 10 10.1789ZM4.9024 15.3031C5.22662 12.7359 7.3914 10.8187 10 10.8187C12.6086 10.8187 14.7734 12.7359 15.0976 15.3031C13.7742 16.5757 11.9772 17.3593 10 17.3593C8.0228 17.3593 6.2266 16.5757 4.9024 15.3031Z" fill="#26537C"/>
</svg>
