<svg width="20" height="20" viewBox="0 0 20 20" fill="none" xmlns="http://www.w3.org/2000/svg">
<path fill-rule="evenodd" clip-rule="evenodd" d="M10.0074 16.851C6.22188 16.851 3.14829 13.7774 3.14829 9.99184C3.14829 7.67305 4.30194 5.62144 6.06495 4.37975C6.32447 4.19679 6.38647 3.83853 6.20428 3.57978C6.02208 3.32026 5.66305 3.25826 5.4043 3.44045C3.3458 4.89036 2 7.28493 2 9.99184C2 14.4112 5.58803 17.9993 10.0074 17.9993C10.3243 17.9993 10.5816 17.742 10.5816 17.4251C10.5816 17.1082 10.3243 16.851 10.0074 16.851Z" fill="#26537C"/>
<path fill-rule="evenodd" clip-rule="evenodd" d="M10.4499 3.14715C14.0295 3.37527 16.8665 6.35547 16.8665 9.99249C16.8665 12.0831 15.9295 13.9556 14.4528 15.2142C14.2117 15.4201 14.1826 15.7829 14.3885 16.0241C14.5937 16.2652 14.9566 16.2943 15.1977 16.0884C16.9217 14.6193 18.0148 12.4322 18.0148 9.99249C18.0148 5.74611 14.7024 2.26756 10.5226 2.00115C10.2065 1.98125 9.93317 2.22162 9.91326 2.53779C9.89336 2.85395 10.1337 3.12724 10.4499 3.14715Z" fill="#26537C"/>
<path fill-rule="evenodd" clip-rule="evenodd" d="M17.1199 15.4989H14.6366V13.0156C14.6366 12.6986 14.3794 12.4414 14.0624 12.4414C13.7455 12.4414 13.4883 12.6986 13.4883 13.0156V16.0731C13.4883 16.39 13.7455 16.6472 14.0624 16.6472H17.1199C17.4369 16.6472 17.6941 16.39 17.6941 16.0731C17.6941 15.7561 17.4369 15.4989 17.1199 15.4989Z" fill="#26537C"/>
<path fill-rule="evenodd" clip-rule="evenodd" d="M3.33977 3.80845H5.82238V6.29105C5.82238 6.60798 6.07959 6.8652 6.39652 6.8652C6.71345 6.8652 6.97067 6.60798 6.97067 6.29105V3.2343C6.97067 2.91737 6.71422 2.66016 6.39652 2.66016H3.33977C3.02284 2.66016 2.76562 2.91737 2.76562 3.2343C2.76562 3.55123 3.02284 3.80845 3.33977 3.80845Z" fill="#26537C"/>
</svg>
