<svg width="20" height="20" viewBox="0 0 20 20" fill="none" xmlns="http://www.w3.org/2000/svg">
<path d="M16.6 10.051C16.6 7.95085 14.96 6.26654 12.96 6.26654C12.56 6.26654 12.16 6.32892 11.8 6.45369C11.08 4.99811 9.62 4 7.94 4C5.54 4 3.6 6.01701 3.6 8.51229C3.6 8.61626 3.6 8.69943 3.6 8.78261C2.12 8.99055 1 10.3006 1 11.8809C1 13.5444 2.24 14.896 3.8 15H16.6C17.92 15 19 13.8771 19 12.5047C19 11.1531 17.92 10.051 16.6 10.051ZM12.72 9.46881L9.16 13.1493C9 13.3157 8.72 13.3157 8.56 13.1493L6.82 11.3403C6.66 11.1739 6.66 10.8828 6.82 10.7164L7.24 10.2798C7.4 10.1134 7.68 10.1134 7.84 10.2798L8.86 11.3403L11.68 8.40832C11.84 8.24197 12.12 8.24197 12.28 8.40832L12.7 8.84499C12.88 9.01134 12.88 9.30246 12.72 9.46881Z" fill="#26537C"/>
</svg>
