<svg width="20" height="20" viewBox="0 0 20 20" fill="none" xmlns="http://www.w3.org/2000/svg">
<path d="M13.1653 2.34837V3.10035C13.1653 3.84584 12.5559 4.44872 11.8103 4.44872H8.19283C7.44729 4.44872 6.83789 3.84584 6.83789 3.10035V2.34837C6.83789 1.60288 7.44729 1 8.19283 1H11.8103C12.5559 1 13.1653 1.60288 13.1653 2.34837Z" fill="#26537C"/>
<path d="M15.4068 2.72461H14.1361V3.1006C14.1361 4.37766 13.0924 5.42135 11.8087 5.42135H8.19124C6.90761 5.42135 5.86385 4.37766 5.86385 3.1006V2.72461H4.59319C3.16045 2.72461 2 3.88499 2 5.31763V16.5584C2 17.991 3.16045 19.1514 4.59319 19.1514H15.4068C16.8395 19.1514 18 17.991 18 16.5584V5.31763C18 3.88499 16.8395 2.72461 15.4068 2.72461ZM12.6146 10.9756L9.38605 13.577C9.28167 13.6607 9.15266 13.706 9.02041 13.706C8.99837 13.706 8.97632 13.7048 8.95363 13.7022C8.79869 13.6847 8.65671 13.6056 8.56077 13.4818L7.29205 11.8631C7.09302 11.6096 7.13775 11.2433 7.39124 11.0443C7.64537 10.8447 8.01166 10.8907 8.21068 11.1435L9.11441 12.2961L11.8833 10.0661C12.1348 9.86384 12.5018 9.90403 12.704 10.1543C12.905 10.4058 12.8661 10.7727 12.6146 10.9756Z" fill="#26537C"/>
</svg>
