<svg width="20" height="20" viewBox="0 0 20 20" fill="none" xmlns="http://www.w3.org/2000/svg">
<path d="M15.2571 2H10.0985L9.43359 4.04102L10.27 5.92308C10.6704 5.86529 11.034 5.658 11.2877 5.34293C11.5414 5.02785 11.6663 4.62838 11.6373 4.22491C11.6084 3.82144 11.4276 3.44391 11.1315 3.16831C10.8355 2.89271 10.446 2.73949 10.0414 2.73949C9.63693 2.73949 9.24743 2.89271 8.95133 3.16831C8.65523 3.44391 8.47452 3.82144 8.44555 4.22491C8.41658 4.62838 8.54151 5.02785 8.7952 5.34293C9.04889 5.658 9.41251 5.86529 9.81287 5.92308L10.0985 2H4.74286C4.01541 2 3.31775 2.28898 2.80336 2.80336C2.28898 3.31775 2 4.01541 2 4.74286V15.2571C2 15.9846 2.28898 16.6823 2.80336 17.1966C3.31775 17.711 4.01541 18 4.74286 18H15.2571C15.9846 18 16.6823 17.711 17.1966 17.1966C17.711 16.6823 18 15.9846 18 15.2571V4.74286C18 4.01541 17.711 3.31775 17.1966 2.80336C16.6823 2.28898 15.9846 2 15.2571 2ZM8.97143 10.8411L9.80114 9.36C9.82108 9.32482 9.84999 9.29556 9.88492 9.2752C9.91986 9.25485 9.95957 9.24412 10 9.24412C10.0404 9.24412 10.0801 9.25485 10.1151 9.2752C10.15 9.29556 10.1789 9.32482 10.1989 9.36L11.0286 10.8411C11.0481 10.8759 11.0582 10.9151 11.0579 10.955C11.0576 10.9949 11.0468 11.034 11.0267 11.0684C11.0066 11.1028 10.9778 11.1314 10.9433 11.1513C10.9087 11.1711 10.8696 11.1816 10.8297 11.1817H9.17029C9.13042 11.1816 9.09126 11.1711 9.05671 11.1513C9.02215 11.1314 8.99339 11.1028 8.97329 11.0684C8.95319 11.034 8.94244 10.9949 8.94212 10.955C8.94179 10.9151 8.95189 10.8759 8.97143 10.8411ZM4.51429 7.82857C4.51429 7.44431 4.62823 7.06868 4.84172 6.74918C5.0552 6.42967 5.35863 6.18065 5.71364 6.0336C6.06865 5.88655 6.4593 5.84808 6.83618 5.92304C7.21305 5.99801 7.55924 6.18305 7.83095 6.45476C8.10266 6.72647 8.2877 7.07266 8.36267 7.44954C8.43763 7.82641 8.39916 8.21706 8.25211 8.57207C8.10506 8.92708 7.85604 9.23051 7.53654 9.444C7.21704 9.65748 6.8414 9.77143 6.45714 9.77143C5.94187 9.77143 5.44769 9.56673 5.08334 9.20238C4.71898 8.83802 4.51429 8.34385 4.51429 7.82857ZM13.4286 14.3429C13.4286 14.4641 13.3804 14.5804 13.2947 14.6661C13.2089 14.7518 13.0927 14.8 12.9714 14.8H7.02857C6.90733 14.8 6.79105 14.7518 6.70532 14.6661C6.61959 14.5804 6.57143 14.4641 6.57143 14.3429V13.4286C6.57143 13.3073 6.61959 13.191 6.70532 13.1053C6.79105 13.0196 6.90733 12.9714 7.02857 12.9714H12.9714C13.0927 12.9714 13.2089 13.0196 13.2947 13.1053C13.3804 13.191 13.4286 13.3073 13.4286 13.4286V14.3429ZM13.5429 9.77143C13.1586 9.77143 12.783 9.65748 12.4635 9.444C12.144 9.23051 11.8949 8.92708 11.7479 8.57207C11.6008 8.21706 11.5624 7.82641 11.6373 7.44954C11.7123 7.07266 11.8973 6.72647 12.1691 6.45476C12.4408 6.18305 12.7869 5.99801 13.1638 5.92304C13.5407 5.84808 13.9313 5.88655 14.2864 6.0336C14.6414 6.18065 14.9448 6.42967 15.1583 6.74918C15.3718 7.06868 15.4857 7.44431 15.4857 7.82857C15.4857 8.34385 15.281 8.83802 14.9167 9.20238C14.5523 9.56673 14.0581 9.77143 13.5429 9.77143Z" fill="#26537C"/>
<path d="M6.3899 8.85792C6.95796 8.85792 7.41847 8.39742 7.41847 7.82935C7.41847 7.26129 6.95796 6.80078 6.3899 6.80078C5.82184 6.80078 5.36133 7.26129 5.36133 7.82935C5.36133 8.39742 5.82184 8.85792 6.3899 8.85792Z" fill="#26537C"/>
<path d="M13.4758 8.85792C14.0439 8.85792 14.5044 8.39742 14.5044 7.82935C14.5044 7.26129 14.0439 6.80078 13.4758 6.80078C12.9078 6.80078 12.4473 7.26129 12.4473 7.82935C12.4473 8.39742 12.9078 8.85792 13.4758 8.85792Z" fill="#26537C"/>
</svg>
