<svg width="20" height="20" viewBox="0 0 20 20" fill="none" xmlns="http://www.w3.org/2000/svg">
<path d="M9.6011 9.92486C12.0656 9.92486 14.0635 7.92696 14.0635 5.46243C14.0635 2.9979 12.0656 1 9.6011 1C7.13657 1 5.13867 2.9979 5.13867 5.46243C5.13867 7.92696 7.13657 9.92486 9.6011 9.92486Z" fill="#26537C"/>
<path d="M3.08156 13.8785C2.97082 14.3737 2.97287 14.8875 3.08757 15.3818C3.20226 15.8761 3.42667 16.3383 3.74416 16.7342C4.06166 17.1301 4.46413 17.4494 4.92176 17.6687C5.3794 17.888 5.88049 18.0015 6.38794 18.0009H12.8138C13.3213 18.0015 13.8224 17.888 14.28 17.6687C14.7376 17.4494 15.1401 17.13 15.4576 16.7342C15.7751 16.3383 15.9995 15.8761 16.1142 15.3818C16.2289 14.8875 16.2309 14.3737 16.1202 13.8785C15.9242 12.9811 15.5444 12.134 15.0045 11.3908C14.4647 10.6476 13.7767 10.0244 12.9838 9.56055C12.0316 10.3463 10.8355 10.776 9.60089 10.776C8.36631 10.776 7.17022 10.3463 6.21795 9.56055C5.42512 10.0244 4.73707 10.6476 4.19724 11.3908C3.65741 12.134 3.27753 12.9811 3.08156 13.8785Z" fill="#26537C"/>
</svg>
